<svg xmlns="http://www.w3.org/2000/svg" viewBox="0 0 17 17"><defs><style>.cls-1{fill:#efc03c;}.cls-2{fill:#efde94;}.cls-3{fill:#ef8003;}</style></defs><title>coin</title><g id="Layer_2" data-name="Layer 2"><g id="Layer_1-2" data-name="Layer 1"><path class="cls-1" d="M8.5,0A8.48,8.48,0,0,0,1.23,12.87L12.87,1.23A8.44,8.44,0,0,0,8.5,0Z"/><path class="cls-1" d="M5.32,16.37A8.48,8.48,0,0,0,16.37,5.32Z"/><path class="cls-2" d="M15.12,3.18a8.53,8.53,0,0,0-2.18-1.92l-.07,0L1.23,12.87l0,.07a8.42,8.42,0,0,0,4.05,3.43L16.37,5.32A8.52,8.52,0,0,0,15.12,3.18Z"/><circle class="cls-3" cx="8.5" cy="8.5" r="7"/><path class="cls-1" d="M9.7,2.62A6,6,0,0,0,2.62,9.7a5.8,5.8,0,0,0,.49,1.41l8-8A5.8,5.8,0,0,0,9.7,2.62Z"/><path class="cls-1" d="M7.16,14.33a5.67,5.67,0,0,0,1.34.17,6,6,0,0,0,6-6,5.67,5.67,0,0,0-.17-1.34Z"/><path class="cls-2" d="M13.68,5.51a6.06,6.06,0,0,0-2.56-2.4l-8,8a6.06,6.06,0,0,0,2.4,2.56,6.18,6.18,0,0,0,1.65.65l7.17-7.17A6.19,6.19,0,0,0,13.68,5.51Z"/><path class="cls-3" d="M8.57,8.51c-1.54,0-2.78.27-2.78,1.81a2.78,2.78,0,0,0,5.57,0C11.36,8.78,10.11,8.51,8.57,8.51Z"/><path class="cls-3" d="M8.6,7.14a1.46,1.46,0,0,0,1.46-1.46c0-.81-.66-1.92-1.46-1.92S7.13,4.86,7.13,5.67A1.46,1.46,0,0,0,8.6,7.14Z"/><path class="cls-3" d="M6.28,6.26C5.74,5.69,4.53,5.34,4,5.88s-.29,1.76.25,2.33a1.42,1.42,0,0,0,2.07-2Z"/><path class="cls-3" d="M10.87,6.26a1.42,1.42,0,1,0,2.07,2c.54-.57.82-1.79.25-2.33S11.41,5.69,10.87,6.26Z"/></g></g></svg>